<svg width="35" height="50" viewBox="0 0 35 50" fill="none" xmlns="http://www.w3.org/2000/svg">
<path d="M29.5 49.1667H4.91667C3.56458 49.1667 2.40753 48.6857 1.4455 47.7236C0.483472 46.7616 0.00163889 45.6037 0 44.25V4.91667C0 3.56458 0.481833 2.40753 1.4455 1.4455C2.40917 0.483472 3.56622 0.00163889 4.91667 0H29.5C30.8521 0 32.01 0.481833 32.9736 1.4455C33.9373 2.40917 34.4183 3.56622 34.4167 4.91667V44.25C34.4167 45.6021 33.9357 46.76 32.9736 47.7236C32.0116 48.6873 30.8537 49.1683 29.5 49.1667ZM17.2083 17.2083C18.5604 17.2083 19.7183 16.7273 20.682 15.7653C21.6456 14.8033 22.1266 13.6454 22.125 12.2917C22.1234 10.9379 21.6423 9.78089 20.682 8.8205C19.7216 7.86011 18.5637 7.37828 17.2083 7.375C15.853 7.37172 14.6959 7.85355 13.7372 8.8205C12.7784 9.78744 12.2966 10.9445 12.2917 12.2917C12.2867 13.6388 12.7686 14.7967 13.7372 15.7653C14.7058 16.7339 15.8628 17.2149 17.2083 17.2083ZM17.2083 41.7917C19.9125 41.7917 22.2274 40.8288 24.1531 38.9031C26.0788 36.9774 27.0417 34.6625 27.0417 31.9583C27.0417 29.2542 26.0788 26.9392 24.1531 25.0135C22.2274 23.0878 19.9125 22.125 17.2083 22.125C14.5042 22.125 12.1892 23.0878 10.2635 25.0135C8.33785 26.9392 7.375 29.2542 7.375 31.9583C7.375 34.6625 8.33785 36.9774 10.2635 38.9031C12.1892 40.8288 14.5042 41.7917 17.2083 41.7917ZM17.2083 36.875C15.8562 36.875 14.6992 36.394 13.7372 35.432C12.7751 34.4699 12.2933 33.3121 12.2917 31.9583C12.29 30.6046 12.7719 29.4476 13.7372 28.4872C14.7025 27.5268 15.8595 27.0449 17.2083 27.0417C18.5571 27.0384 19.715 27.5202 20.682 28.4872C21.6489 29.4541 22.1299 30.6112 22.125 31.9583C22.1201 33.3055 21.6391 34.4634 20.682 35.432C19.7248 36.4005 18.567 36.8816 17.2083 36.875Z" fill="#4F4F4F"/>
</svg>
