<svg width="53" height="53" viewBox="0 0 53 53" fill="none" xmlns="http://www.w3.org/2000/svg">
<path d="M2 2L21.3333 21.3333M50.3333 2L31 21.3333" stroke="#4F4F4F" stroke-width="4" stroke-linecap="round" stroke-linejoin="round"/>
<path d="M26.1667 31C39.5135 31 50.3333 25.5901 50.3333 18.9167C50.3333 12.2432 39.5135 6.83334 26.1667 6.83334C12.8198 6.83334 2 12.2432 2 18.9167C2 25.5901 12.8198 31 26.1667 31Z" stroke="#4F4F4F" stroke-width="4" stroke-linecap="round" stroke-linejoin="round"/>
<path d="M14.0833 29.55V48.6417M26.1667 31V50.3333M26.1667 50.3333C19.7573 50.3333 13.6104 49.0603 9.07825 46.7942C4.54612 44.5281 2 41.4547 2 38.25V18.9167M26.1667 50.3333C32.5761 50.3333 38.7229 49.0603 43.2551 46.7942C47.7872 44.5281 50.3333 41.4547 50.3333 38.25V18.9167M38.25 29.55V48.6417" stroke="#4F4F4F" stroke-width="4" stroke-linecap="round" stroke-linejoin="round"/>
</svg>
