<svg width="49" height="49" viewBox="0 0 49 49" fill="none" xmlns="http://www.w3.org/2000/svg">
<path d="M40.8332 8.1665C41.8634 8.16618 42.8557 8.55525 43.611 9.25573C44.3664 9.9562 44.8291 10.9163 44.9064 11.9436L44.9166 12.2498V36.7498C44.9169 37.78 44.5278 38.7722 43.8274 39.5276C43.1269 40.283 42.1668 40.7457 41.1395 40.823L40.8332 40.8332H8.16658C7.13641 40.8335 6.14418 40.4444 5.3888 39.7439C4.63342 39.0435 4.17072 38.0834 4.09346 37.0561L4.08325 36.7498V12.2498C4.08293 11.2197 4.472 10.2274 5.17247 9.47205C5.87295 8.71667 6.83306 8.25398 7.86034 8.17671L8.16658 8.1665H40.8332ZM40.8332 15.1368L26.6641 29.3059C26.0899 29.8794 25.3115 30.2016 24.4999 30.2016C23.6884 30.2016 22.91 29.8794 22.3358 29.3059L8.16658 15.1368V36.7498H40.8332V15.1368ZM37.9463 12.2498H11.0535L24.4999 25.6963L37.9463 12.2498Z" fill="white"/>
</svg>
