<svg width="54" height="54" viewBox="0 0 54 54" fill="none" xmlns="http://www.w3.org/2000/svg">
<path d="M48.8125 0H4.4375C3.2606 0 2.13191 0.467521 1.29971 1.29971C0.467521 2.13191 0 3.2606 0 4.4375V48.8125C0 49.9894 0.467521 51.1181 1.29971 51.9503C2.13191 52.7825 3.2606 53.25 4.4375 53.25H48.8125C49.9894 53.25 51.1181 52.7825 51.9503 51.9503C52.7825 51.1181 53.25 49.9894 53.25 48.8125V4.4375C53.25 3.2606 52.7825 2.13191 51.9503 1.29971C51.1181 0.467521 49.9894 0 48.8125 0ZM15.5312 48.8125H4.4375V4.4375H11.0938V31.0625C11.0938 31.6509 11.3275 32.2153 11.7436 32.6314C12.1597 33.0475 12.7241 33.2812 13.3125 33.2812H15.5312V48.8125ZM33.2812 48.8125H19.9688V33.2812H22.1875C22.7759 33.2812 23.3403 33.0475 23.7564 32.6314C24.1725 32.2153 24.4062 31.6509 24.4062 31.0625V4.4375H28.8438V31.0625C28.8438 31.6509 29.0775 32.2153 29.4936 32.6314C29.9097 33.0475 30.4741 33.2812 31.0625 33.2812H33.2812V48.8125ZM48.8125 48.8125H37.7188V33.2812H39.9375C40.5259 33.2812 41.0903 33.0475 41.5064 32.6314C41.9225 32.2153 42.1562 31.6509 42.1562 31.0625V4.4375H48.8125V48.8125Z" fill="#4F4F4F"/>
</svg>
