<svg width="54" height="54" viewBox="0 0 54 54" fill="none" xmlns="http://www.w3.org/2000/svg">
<path d="M22.921 16.6022L9.43448 35.0297C9.11714 35.4632 8.96538 35.996 9.00665 36.5316C9.04792 37.0673 9.27948 37.5705 9.65948 37.9502L11.4977 39.7907C11.8833 40.1759 12.3955 40.408 12.9392 40.444C13.483 40.48 14.0213 40.3174 14.4542 39.9865L32.1235 26.5" stroke="#4F4F4F" stroke-width="5" stroke-linecap="round" stroke-linejoin="round"/>
<path d="M35.2959 47.1415C33.0459 45.625 30.5079 44.5 27.4209 44.5C22.7904 44.5 18.5829 49.801 13.9209 49C9.25892 48.199 7.67717 41.4198 10.5459 38.875" stroke="#4F4F4F" stroke-width="5" stroke-linecap="round" stroke-linejoin="round"/>
<path d="M34.1709 26.5C40.3841 26.5 45.4209 21.4632 45.4209 15.25C45.4209 9.0368 40.3841 4 34.1709 4C27.9577 4 22.9209 9.0368 22.9209 15.25C22.9209 21.4632 27.9577 26.5 34.1709 26.5Z" stroke="#4F4F4F" stroke-width="5" stroke-linecap="round" stroke-linejoin="round"/>
</svg>
