<svg width="58" height="58" viewBox="0 0 58 58" fill="none" xmlns="http://www.w3.org/2000/svg">
<g clip-path="url(#clip0_4_43)">
<path d="M8.49691 49.503C5.72712 46.8279 3.51783 43.6279 1.99797 40.0898C0.478111 36.5517 -0.32189 32.7463 -0.35535 28.8957C-0.388811 25.0451 0.344938 21.2264 1.80308 17.6624C3.26123 14.0984 5.41457 10.8605 8.13746 8.13758C10.8603 5.41469 14.0983 3.26135 17.6622 1.80321C21.2262 0.34506 25.0449 -0.388689 28.8955 -0.355228C32.7461 -0.321768 36.5515 0.478233 40.0896 1.99809C43.6278 3.51796 46.8278 5.72724 49.5029 8.49704C54.7855 13.9665 57.7085 21.292 57.6425 28.8957C57.5764 36.4994 54.5265 43.7729 49.1497 49.1498C43.7728 54.5266 36.4993 57.5765 28.8955 57.6426C21.2918 57.7087 13.9664 54.7856 8.49691 49.503ZM20.2999 17.4V40.6H26.0999V17.4H20.2999ZM31.8999 17.4V40.6H37.6999V17.4H31.8999Z" fill="white"/>
</g>
<defs>
<clipPath id="clip0_4_43">
<rect width="58" height="58" fill="white"/>
</clipPath>
</defs>
</svg>
